<svg id="Layer_1" data-name="Layer 1" xmlns="http://www.w3.org/2000/svg" viewBox="0 0 452.7 115.85"><defs><style>.cls-1{fill:#a71f67;}.cls-2{fill:#fff;}</style></defs><title>bet_logo_magenta_bg</title><rect class="cls-1" width="452.7" height="115.85"/><path class="cls-2" d="M40,75V40H52.89a24.48,24.48,0,0,1,6.18.67,12,12,0,0,1,4.16,1.9,7.13,7.13,0,0,1,2.34,3,10,10,0,0,1,.74,3.91A7.54,7.54,0,0,1,66,51.75a6.57,6.57,0,0,1-1.06,2,7.58,7.58,0,0,1-1.85,1.75,12.11,12.11,0,0,1-2.72,1.36,9.67,9.67,0,0,1,5.13,2.73,7.07,7.07,0,0,1,1.65,4.84,10,10,0,0,1-.86,4.16A9.6,9.6,0,0,1,63.72,72a12.12,12.12,0,0,1-4.12,2.23A17.85,17.85,0,0,1,54,75Zm8.13-20.3h4.23a13.78,13.78,0,0,0,2.43-.19,5.14,5.14,0,0,0,1.84-.67,3,3,0,0,0,1.15-1.33,4.84,4.84,0,0,0,.4-2.11,5.88,5.88,0,0,0-.31-2.08,3,3,0,0,0-1-1.34,4.19,4.19,0,0,0-1.64-.72,11.66,11.66,0,0,0-2.37-.22H48.13Zm0,5.44v8.73h5.72a7.22,7.22,0,0,0,2.63-.41,4.18,4.18,0,0,0,1.6-1.06,3.53,3.53,0,0,0,.8-1.47,6.63,6.63,0,0,0,.21-1.66,5.48,5.48,0,0,0-.25-1.73,3,3,0,0,0-.86-1.3,4.37,4.37,0,0,0-1.63-.82,9.56,9.56,0,0,0-2.55-.28Z" transform="translate(0 0)"/><path class="cls-2" d="M94.4,40v6.25H80v8.18H91v6H80v8.35H94.4V75H71.85V40Z" transform="translate(0 0)"/><path class="cls-2" d="M126.85,40v6.45H117V75h-8.13V46.45H99V40Z" transform="translate(0 0)"/><path class="cls-2" d="M156.53,68.91a.9.9,0,0,0-.46.11,1.86,1.86,0,0,0-.3.21,16.68,16.68,0,0,1-2,1.6A12,12,0,0,1,151.61,72a12.67,12.67,0,0,1-2.55.69,19,19,0,0,1-3.19.24,13.34,13.34,0,0,1-5.24-1,12.18,12.18,0,0,1-4.18-2.9,13.71,13.71,0,0,1-2.77-4.66,18.44,18.44,0,0,1-1-6.31,17.74,17.74,0,0,1,1-6.19,13.69,13.69,0,0,1,2.83-4.67,12.46,12.46,0,0,1,4.34-3,14.42,14.42,0,0,1,5.54-1,15.1,15.1,0,0,1,2.93.25,14,14,0,0,1,2.27.6,9.64,9.64,0,0,1,1.67.79c.48.29.89.56,1.22.8l.85.62a1.42,1.42,0,0,0,.8.33,1.09,1.09,0,0,0,.94-.46L158,44.7l-.27-.24a21.61,21.61,0,0,0-2.36-1.82,13.44,13.44,0,0,0-2.59-1.32,15.89,15.89,0,0,0-2.95-.82,19.47,19.47,0,0,0-3.46-.28,18,18,0,0,0-6.92,1.29,15.77,15.77,0,0,0-5.41,3.65,16.65,16.65,0,0,0-3.5,5.64A20.28,20.28,0,0,0,129.33,58a21.27,21.27,0,0,0,1.2,7.31A16.5,16.5,0,0,0,133.9,71a14.88,14.88,0,0,0,5.19,3.61,17.08,17.08,0,0,0,6.64,1.27,20.3,20.3,0,0,0,4-.36,15.8,15.8,0,0,0,3.33-1,14.83,14.83,0,0,0,2.81-1.58,16.73,16.73,0,0,0,2.36-2.09l.26-.27-1.23-1.32A1,1,0,0,0,156.53,68.91Z" transform="translate(0 0)"/><path class="cls-2" d="M190,45.11a15.13,15.13,0,0,0-5.27-3.62,17.63,17.63,0,0,0-6.77-1.27,17.3,17.3,0,0,0-6.72,1.28,15.27,15.27,0,0,0-5.26,3.62,16.62,16.62,0,0,0-3.42,5.62,22.54,22.54,0,0,0,0,14.57,16.56,16.56,0,0,0,3.42,5.62,15.25,15.25,0,0,0,5.26,3.61,18.55,18.55,0,0,0,13.49,0,15.25,15.25,0,0,0,5.26-3.61,16.32,16.32,0,0,0,3.41-5.62,22.71,22.71,0,0,0,0-14.57A16.6,16.6,0,0,0,190,45.11Zm-12,27.74a14.21,14.21,0,0,1-5.39-1,11.76,11.76,0,0,1-4.18-2.91,13.32,13.32,0,0,1-2.73-4.66,18.76,18.76,0,0,1-1-6.27,19.09,19.09,0,0,1,1-6.26,13.46,13.46,0,0,1,2.73-4.67,12,12,0,0,1,4.19-2.92,13.94,13.94,0,0,1,5.38-1,14.22,14.22,0,0,1,5.45,1,11.74,11.74,0,0,1,4.17,2.92,13.56,13.56,0,0,1,2.7,4.67,21,21,0,0,1,0,12.54,13.47,13.47,0,0,1-2.7,4.65,11.47,11.47,0,0,1-4.17,2.91A14.41,14.41,0,0,1,177.91,72.85Z" transform="translate(0 0)"/><path class="cls-2" d="M225.59,69.63,204.37,41.22a1.54,1.54,0,0,0-.58-.5,1.71,1.71,0,0,0-.69-.12h-1.61V75.45h3V46.35l21.31,28.44a1.43,1.43,0,0,0,1.22.66h1.59V40.6h-3Z" transform="translate(0 0)"/><path class="cls-2" d="M253.45,58.92a12,12,0,0,0-2.83-1.66c-1-.42-2.09-.82-3.17-1.17s-2.12-.71-3.13-1.07a12.56,12.56,0,0,1-2.65-1.29,6.16,6.16,0,0,1-1.82-1.81,4.81,4.81,0,0,1-.67-2.64,6.18,6.18,0,0,1,.47-2.37,5.6,5.6,0,0,1,1.35-2,6.4,6.4,0,0,1,2.22-1.36,9.05,9.05,0,0,1,3.13-.5,8.82,8.82,0,0,1,3,.43,9.9,9.9,0,0,1,2,1,9.68,9.68,0,0,1,1.29.94,1.71,1.71,0,0,0,1.08.55,1.1,1.1,0,0,0,1-.63l.71-1.37-.21-.21a11.84,11.84,0,0,0-4-2.66,13.16,13.16,0,0,0-4.9-.87A11.73,11.73,0,0,0,242,41a9.89,9.89,0,0,0-3.22,2,8.88,8.88,0,0,0-2,2.94,9.14,9.14,0,0,0-.68,3.45,8.46,8.46,0,0,0,.78,3.83,7.59,7.59,0,0,0,2,2.56,11.15,11.15,0,0,0,2.83,1.66c1,.42,2.1.81,3.17,1.14s2.12.68,3.14,1a12.2,12.2,0,0,1,2.64,1.27,6.07,6.07,0,0,1,1.82,1.82,5.2,5.2,0,0,1,.67,2.76,8.07,8.07,0,0,1-.55,3,6.62,6.62,0,0,1-1.58,2.37,7.54,7.54,0,0,1-2.55,1.58A9.54,9.54,0,0,1,245,73a10.44,10.44,0,0,1-4.5-1,9.25,9.25,0,0,1-1.5-.87c-.43-.32-.81-.62-1.13-.9l-.82-.71a1.31,1.31,0,0,0-.82-.38,1.25,1.25,0,0,0-1,.55L234.42,71l.2.23A14,14,0,0,0,239,74.6a13.49,13.49,0,0,0,6,1.23,12.87,12.87,0,0,0,4.76-.83,10.56,10.56,0,0,0,3.56-2.3,9.86,9.86,0,0,0,2.22-3.42,11.6,11.6,0,0,0,.76-4.17,7.9,7.9,0,0,0-.78-3.69A7.77,7.77,0,0,0,253.45,58.92Z" transform="translate(0 0)"/><polygon class="cls-2" points="259.16 43.51 271.18 43.51 271.18 75.44 274.45 75.44 274.45 43.51 286.4 43.51 286.4 40.6 259.16 40.6 259.16 43.51"/><path class="cls-2" d="M303.84,59.64a13.81,13.81,0,0,0,3.19-.93,10.71,10.71,0,0,0,3.16-2.08,8.74,8.74,0,0,0,2-3,9.54,9.54,0,0,0,.71-3.71,8.36,8.36,0,0,0-3.07-7c-2-1.56-5.05-2.36-9.05-2.36h-9.09V75.45H295V60.06h4a3.26,3.26,0,0,1,1.28.17,2,2,0,0,1,.73.63l10.89,13.8a2.21,2.21,0,0,0,.68.6,1.9,1.9,0,0,0,.85.19h3L304.21,60.07A5.2,5.2,0,0,0,303.84,59.64ZM295,43.37h5.82c2.93,0,5.17.56,6.68,1.67a5.84,5.84,0,0,1,2.22,5.06,7.28,7.28,0,0,1-.61,3,6.45,6.45,0,0,1-1.78,2.28,8.39,8.39,0,0,1-2.89,1.48,13.55,13.55,0,0,1-3.93.52H295Z" transform="translate(0 0)"/><path class="cls-2" d="M343.38,62.05a13.16,13.16,0,0,1-.69,4.31,10.1,10.1,0,0,1-2,3.43,9.26,9.26,0,0,1-3.15,2.27,10.45,10.45,0,0,1-4.22.81,10.28,10.28,0,0,1-4.22-.83A9,9,0,0,1,326,69.77a10.32,10.32,0,0,1-2-3.44,13.32,13.32,0,0,1-.68-4.3V40.6h-3.3V62.05a15.66,15.66,0,0,0,.92,5.4,13.17,13.17,0,0,0,2.64,4.39,12.21,12.21,0,0,0,4.21,3,15,15,0,0,0,11.07,0,12.27,12.27,0,0,0,4.2-3,13,13,0,0,0,2.64-4.39,15.66,15.66,0,0,0,.92-5.4V40.6h-3.27Z" transform="translate(0 0)"/><path class="cls-2" d="M380.54,68.91a.9.9,0,0,0-.46.11,2.44,2.44,0,0,0-.3.21,17.44,17.44,0,0,1-2,1.6A12,12,0,0,1,375.63,72a12.85,12.85,0,0,1-2.55.69,19.11,19.11,0,0,1-3.19.24,13.31,13.31,0,0,1-5.24-1,12.09,12.09,0,0,1-4.18-2.9,13.73,13.73,0,0,1-2.78-4.66,18.44,18.44,0,0,1-1-6.31,18,18,0,0,1,1-6.19,13.71,13.71,0,0,1,2.84-4.67,12.33,12.33,0,0,1,4.33-3,14.47,14.47,0,0,1,5.55-1,15,15,0,0,1,2.92.25,13.47,13.47,0,0,1,2.27.6,9.42,9.42,0,0,1,1.68.79c.48.29.89.56,1.22.8l.85.62a1.37,1.37,0,0,0,.79.33,1.07,1.07,0,0,0,.94-.47l1-1.37-.27-.24a19.85,19.85,0,0,0-2.36-1.82,14,14,0,0,0-2.58-1.32,16.33,16.33,0,0,0-2.95-.82,19.55,19.55,0,0,0-3.46-.28,18.12,18.12,0,0,0-6.93,1.29,15.72,15.72,0,0,0-5.4,3.65,16.49,16.49,0,0,0-3.5,5.64A20.06,20.06,0,0,0,353.34,58a21.27,21.27,0,0,0,1.21,7.31A16.64,16.64,0,0,0,357.91,71a15,15,0,0,0,5.19,3.61,17.12,17.12,0,0,0,6.64,1.27,20.3,20.3,0,0,0,4-.36,15.8,15.8,0,0,0,3.33-1,14.53,14.53,0,0,0,2.81-1.58,16.81,16.81,0,0,0,2.37-2.09l.26-.27-1.23-1.32A1,1,0,0,0,380.54,68.91Z" transform="translate(0 0)"/><polygon class="cls-2" points="385.46 40.6 385.46 43.51 397.48 43.51 397.48 75.44 400.75 75.44 400.75 43.51 412.7 43.51 412.7 40.6 385.46 40.6"/></svg>